<svg width="218" height="82" viewBox="0 0 218 82" fill="none" xmlns="http://www.w3.org/2000/svg">
<path d="M18.2527 48.7939V43.6518H8.04691V36.9002H17.821V31.7581H8.04691V24.928H18.2527V19.7858H2.66922V48.7939H18.2527ZM71.2262 48.7939V19.7858H63.8466L56.1137 41.7676L48.3023 19.7858H40.9227V48.7939H46.3004V27.0477L53.8763 48.7939H58.2726L65.8485 27.0477V48.7939H71.2262ZM112.654 28.7356C112.654 25.399 111.241 22.6513 108.728 21.1204C107.08 20.1391 105.156 19.7858 101.309 19.7858H94.1261V48.7939H99.5038V37.7638H101.231C105.353 37.7638 107.237 37.4498 108.846 36.4684C111.201 35.0161 112.654 32.0721 112.654 28.7356ZM107.237 28.8141C107.237 31.3263 105.902 32.6216 101.074 32.6216H99.5038V24.928H101.309C105.431 24.928 107.237 25.7523 107.237 28.8141Z" fill="#D9D9D9"/>
<path d="M135.227 69.2056V40.1974H129.85V69.2056H135.227ZM178.338 69.2056L170.487 58.4894C175.708 57.1941 178.063 54.0146 178.063 49.5005C178.063 46.5565 177.003 44.0443 175.002 42.3564C173.117 40.747 171.037 40.1974 167.072 40.1974H158.711V69.2056H164.089V58.0969L171.704 69.2056H178.338ZM172.646 49.6575C172.646 52.7192 170.88 54.0538 166.719 54.0538H164.089V45.3396H166.484C171.587 45.3396 172.646 47.0668 172.646 49.6575ZM214.925 69.2056V64.0634H204.719V57.3118H214.493V52.1697H204.719V45.3396H214.925V40.1974H199.342V69.2056H214.925Z" fill="#D9D9D9"/>
<rect y="60.8516" width="113.442" height="9.02824" fill="#D9D9D9"/>
<rect x="127.18" y="20.4204" width="89.8898" height="9.02824" fill="#D9D9D9"/>
</svg>
